<?xml version="1.0" encoding="utf-8"?>
<!-- Generator: Adobe Illustrator 25.2.0, SVG Export Plug-In . SVG Version: 6.00 Build 0)  -->
<svg version="1.1" xmlns="http://www.w3.org/2000/svg" xmlns:xlink="http://www.w3.org/1999/xlink" x="0px" y="0px"
	 viewBox="0 0 515.23 192.5" style="enable-background:new 0 0 515.23 192.5;" xml:space="preserve">
<style type="text/css">
	.st0{fill:#1A1549;}
</style>
<g id="Layer_1">
	<g>
		<g>
			<path class="st0" d="M47.63,0.46c-26.06,0-47.19,21.13-47.19,47.19v144.06h121.89c26.06,0,47.19-22.14,47.19-48.2V0.46H47.63z
				 M140.51,139.5l-111.31,0l-0.09-29l82.4,0l0.02-29H29.44V52.77l111.07-0.27V139.5z"/>
		</g>
	</g>
</g>
<g id="Layer_2">
	<g>
		<path class="st0" d="M198.47,43.82V1.28h27.05V6.5h-20.61v13.25h18.78v5.11h-18.78V38.6h20.61v5.23H198.47z"/>
		<path class="st0" d="M233.18,43.82V1.28h14.89c3.32,0,6.08,0.56,8.27,1.67c2.19,1.11,3.82,2.63,4.89,4.56
			c1.07,1.93,1.61,4.1,1.61,6.53c0,2.31-0.52,4.43-1.55,6.35c-1.03,1.93-2.64,3.46-4.83,4.59c-2.19,1.14-4.98,1.7-8.39,1.7h-8.45
			v17.14H233.18z M239.62,21.4h8.15c3.04,0,5.22-0.66,6.53-1.98c1.32-1.32,1.98-3.11,1.98-5.38c0-2.35-0.66-4.18-1.98-5.5
			c-1.32-1.32-3.5-1.98-6.53-1.98h-8.15V21.4z"/>
		<path class="st0" d="M269.22,43.82V1.28h6.44v42.55H269.22z"/>
		<path class="st0" d="M303.26,44.55c-4.21,0-7.85-0.92-10.91-2.77c-3.06-1.84-5.42-4.42-7.08-7.72c-1.66-3.3-2.49-7.12-2.49-11.46
			c0-4.38,0.83-8.22,2.49-11.52c1.66-3.3,4.02-5.89,7.08-7.75c3.06-1.86,6.7-2.8,10.91-2.8c4.98,0,9.06,1.22,12.22,3.65
			c3.16,2.43,5.17,5.83,6.02,10.21h-7.17c-0.57-2.47-1.78-4.44-3.65-5.9c-1.86-1.46-4.36-2.19-7.48-2.19
			c-4.25,0-7.62,1.45-10.09,4.35c-2.47,2.9-3.71,6.88-3.71,11.94c0,5.03,1.24,8.98,3.71,11.85c2.47,2.88,5.83,4.32,10.09,4.32
			c3.12,0,5.61-0.69,7.48-2.07c1.86-1.38,3.08-3.26,3.65-5.65h7.17c-0.85,4.21-2.86,7.52-6.02,9.91
			C312.32,43.36,308.25,44.55,303.26,44.55z"/>
		<g>
			<path class="st0" d="M198.47,117.39V74.84h6.44v42.55H198.47z"/>
			<path class="st0" d="M213.3,117.39V87.24h5.71l0.49,5.29c0.93-1.86,2.3-3.33,4.1-4.41c1.8-1.07,3.88-1.61,6.23-1.61
				c3.65,0,6.51,1.13,8.6,3.4c2.09,2.27,3.13,5.65,3.13,10.15v17.32h-6.38v-16.66c0-5.83-2.39-8.75-7.17-8.75
				c-2.39,0-4.37,0.85-5.93,2.55s-2.34,4.13-2.34,7.29v15.56H213.3z"/>
			<path class="st0" d="M257.13,117.39l-11.31-30.15h6.75l8.39,24.01l8.39-24.01h6.69l-11.25,30.15H257.13z"/>
			<path class="st0" d="M293.9,118.12c-2.96,0-5.58-0.66-7.87-1.98c-2.29-1.32-4.08-3.15-5.38-5.5c-1.3-2.35-1.95-5.08-1.95-8.21
				c0-3.16,0.64-5.94,1.92-8.33c1.28-2.39,3.06-4.25,5.35-5.59c2.29-1.34,4.95-2.01,7.99-2.01c2.96,0,5.53,0.66,7.72,1.98
				c2.19,1.32,3.89,3.07,5.11,5.26c1.22,2.19,1.82,4.6,1.82,7.23c0,0.41-0.01,0.84-0.03,1.31c-0.02,0.47-0.05,0.98-0.09,1.55h-23.46
				c0.2,2.92,1.17,5.14,2.89,6.66c1.72,1.52,3.72,2.28,5.99,2.28c1.82,0,3.35-0.42,4.59-1.25c1.24-0.83,2.16-1.96,2.77-3.37h6.44
				c-0.81,2.84-2.42,5.21-4.83,7.11C300.45,117.17,297.47,118.12,293.9,118.12z M293.9,91.8c-2.15,0-4.05,0.64-5.71,1.91
				c-1.66,1.28-2.67,3.19-3.04,5.74h17.02c-0.12-2.35-0.95-4.21-2.49-5.59C298.13,92.49,296.21,91.8,293.9,91.8z"/>
			<path class="st0" d="M327.33,118.12c-3.81,0-6.95-0.93-9.42-2.8c-2.47-1.86-3.89-4.34-4.25-7.42h6.5
				c0.32,1.38,1.09,2.56,2.31,3.56c1.22,0.99,2.82,1.49,4.8,1.49c1.95,0,3.36-0.4,4.25-1.22c0.89-0.81,1.34-1.74,1.34-2.8
				c0-1.54-0.62-2.58-1.85-3.13c-1.24-0.55-2.95-1.04-5.14-1.49c-1.7-0.37-3.39-0.85-5.08-1.46c-1.68-0.61-3.08-1.47-4.19-2.58
				c-1.12-1.11-1.67-2.62-1.67-4.53c0-2.63,1.01-4.83,3.04-6.6c2.03-1.76,4.86-2.64,8.51-2.64c3.36,0,6.09,0.81,8.18,2.43
				c2.09,1.62,3.31,3.91,3.68,6.87h-6.2c-0.2-1.3-0.8-2.31-1.79-3.04c-0.99-0.73-2.32-1.09-3.98-1.09c-1.62,0-2.88,0.33-3.77,1
				c-0.89,0.67-1.34,1.53-1.34,2.58c0,1.05,0.62,1.88,1.85,2.49c1.24,0.61,2.87,1.15,4.89,1.64c2.03,0.45,3.9,0.96,5.62,1.55
				c1.72,0.59,3.11,1.45,4.16,2.58s1.58,2.8,1.58,4.98c0.04,2.76-1.02,5.05-3.19,6.87C334.01,117.21,331.06,118.12,327.33,118.12z"
				/>
			<path class="st0" d="M357.91,117.39c-2.96,0-5.31-0.72-7.05-2.16c-1.74-1.44-2.61-4-2.61-7.69V92.65h-5.17v-5.41h5.17l0.79-7.66
				h5.65v7.66h8.51v5.41h-8.51v14.89c0,1.66,0.35,2.81,1.06,3.43c0.71,0.63,1.93,0.94,3.68,0.94h3.46v5.47H357.91z"/>
			<path class="st0" d="M369.82,117.39V87.24h5.71l0.55,4.25c0.97-1.54,2.26-2.76,3.86-3.65c1.6-0.89,3.45-1.34,5.56-1.34
				c4.78,0,8.1,1.88,9.97,5.65c1.09-1.74,2.56-3.12,4.41-4.13c1.84-1.01,3.84-1.52,5.99-1.52c3.77,0,6.73,1.13,8.87,3.4
				c2.15,2.27,3.22,5.65,3.22,10.15v17.32h-6.44v-16.66c0-5.83-2.23-8.75-6.69-8.75c-2.27,0-4.12,0.85-5.56,2.55
				s-2.16,4.13-2.16,7.29v15.56h-6.44v-16.66c0-5.83-2.25-8.75-6.75-8.75c-2.23,0-4.06,0.85-5.5,2.55c-1.44,1.7-2.16,4.13-2.16,7.29
				v15.56H369.82z"/>
			<path class="st0" d="M439.6,118.12c-2.96,0-5.58-0.66-7.87-1.98c-2.29-1.32-4.08-3.15-5.38-5.5c-1.3-2.35-1.95-5.08-1.95-8.21
				c0-3.16,0.64-5.94,1.92-8.33c1.28-2.39,3.06-4.25,5.35-5.59c2.29-1.34,4.95-2.01,7.99-2.01c2.96,0,5.53,0.66,7.72,1.98
				c2.19,1.32,3.89,3.07,5.11,5.26c1.22,2.19,1.82,4.6,1.82,7.23c0,0.41-0.01,0.84-0.03,1.31c-0.02,0.47-0.05,0.98-0.09,1.55h-23.46
				c0.2,2.92,1.17,5.14,2.89,6.66c1.72,1.52,3.72,2.28,5.99,2.28c1.82,0,3.35-0.42,4.59-1.25c1.24-0.83,2.16-1.96,2.77-3.37h6.44
				c-0.81,2.84-2.42,5.21-4.83,7.11C446.15,117.17,443.16,118.12,439.6,118.12z M439.6,91.8c-2.15,0-4.05,0.64-5.71,1.91
				c-1.66,1.28-2.67,3.19-3.04,5.74h17.02c-0.12-2.35-0.95-4.21-2.49-5.59C443.83,92.49,441.91,91.8,439.6,91.8z"/>
			<path class="st0" d="M460.99,117.39V87.24h5.71l0.49,5.29c0.93-1.86,2.3-3.33,4.1-4.41c1.8-1.07,3.88-1.61,6.23-1.61
				c3.65,0,6.51,1.13,8.6,3.4c2.09,2.27,3.13,5.65,3.13,10.15v17.32h-6.38v-16.66c0-5.83-2.39-8.75-7.17-8.75
				c-2.39,0-4.37,0.85-5.93,2.55s-2.34,4.13-2.34,7.29v15.56H460.99z"/>
			<path class="st0" d="M509.5,117.39c-2.96,0-5.31-0.72-7.05-2.16c-1.74-1.44-2.61-4-2.61-7.69V92.65h-5.17v-5.41h5.17l0.79-7.66
				h5.65v7.66h8.51v5.41h-8.51v14.89c0,1.66,0.35,2.81,1.06,3.43c0.71,0.63,1.93,0.94,3.68,0.94h3.46v5.47H509.5z"/>
		</g>
		<path class="st0" d="M198.47,190.96v-42.55h14.89c3.32,0,6.08,0.56,8.27,1.67c2.19,1.12,3.82,2.63,4.89,4.56
			c1.07,1.92,1.61,4.1,1.61,6.53c0,2.31-0.52,4.43-1.55,6.35c-1.03,1.93-2.64,3.46-4.83,4.59c-2.19,1.13-4.98,1.7-8.39,1.7h-8.45
			v17.14H198.47z M204.91,168.53h8.15c3.04,0,5.22-0.66,6.53-1.98c1.32-1.32,1.98-3.11,1.98-5.38c0-2.35-0.66-4.18-1.98-5.5
			c-1.32-1.32-3.5-1.98-6.53-1.98h-8.15V168.53z"/>
		<path class="st0" d="M242.84,191.69c-2.55,0-4.66-0.43-6.32-1.28c-1.66-0.85-2.9-1.98-3.71-3.37c-0.81-1.4-1.22-2.93-1.22-4.59
			c0-2.92,1.13-5.23,3.4-6.93c2.27-1.7,5.51-2.55,9.73-2.55h7.9v-0.55c0-2.35-0.64-4.11-1.91-5.29c-1.28-1.17-2.93-1.76-4.95-1.76
			c-1.78,0-3.33,0.44-4.65,1.31c-1.32,0.87-2.12,2.16-2.4,3.86h-6.44c0.2-2.19,0.94-4.06,2.22-5.62c1.28-1.56,2.9-2.76,4.86-3.59
			c1.96-0.83,4.12-1.25,6.47-1.25c4.21,0,7.48,1.1,9.79,3.31c2.31,2.21,3.46,5.22,3.46,9.03v18.54h-5.59l-0.55-5.17
			c-0.85,1.66-2.09,3.06-3.71,4.19C247.6,191.12,245.48,191.69,242.84,191.69z M244.12,186.46c1.74,0,3.21-0.42,4.41-1.25
			c1.19-0.83,2.13-1.93,2.8-3.31c0.67-1.38,1.08-2.9,1.25-4.56h-7.17c-2.55,0-4.37,0.45-5.44,1.34c-1.07,0.89-1.61,2.01-1.61,3.34
			c0,1.38,0.52,2.46,1.55,3.25C240.93,186.07,242.34,186.46,244.12,186.46z"/>
		<path class="st0" d="M266.61,190.96v-30.15h5.77l0.55,5.71c1.05-1.98,2.52-3.56,4.41-4.71c1.88-1.15,4.16-1.73,6.84-1.73v6.75
			h-1.76c-1.78,0-3.37,0.29-4.77,0.88c-1.4,0.59-2.51,1.58-3.34,2.98c-0.83,1.4-1.25,3.33-1.25,5.8v14.47H266.61z"/>
		<path class="st0" d="M302.35,190.96c-2.96,0-5.31-0.72-7.05-2.16c-1.74-1.44-2.61-4-2.61-7.69v-14.89h-5.17v-5.41h5.17l0.79-7.66
			h5.65v7.66h8.51v5.41h-8.51v14.89c0,1.66,0.35,2.81,1.06,3.43c0.71,0.63,1.93,0.94,3.68,0.94h3.46v5.47H302.35z"/>
		<path class="st0" d="M314.26,190.96v-30.15h5.71l0.49,5.29c0.93-1.86,2.3-3.33,4.1-4.41c1.8-1.07,3.88-1.61,6.23-1.61
			c3.65,0,6.51,1.14,8.6,3.4c2.09,2.27,3.13,5.65,3.13,10.15v17.32h-6.38v-16.66c0-5.83-2.39-8.75-7.17-8.75
			c-2.39,0-4.37,0.85-5.93,2.55c-1.56,1.7-2.34,4.13-2.34,7.29v15.56H314.26z"/>
		<path class="st0" d="M364.23,191.69c-2.96,0-5.58-0.66-7.87-1.98c-2.29-1.32-4.08-3.15-5.38-5.5c-1.3-2.35-1.95-5.08-1.95-8.21
			c0-3.16,0.64-5.94,1.92-8.33c1.28-2.39,3.06-4.25,5.35-5.59c2.29-1.34,4.95-2.01,7.99-2.01c2.96,0,5.53,0.66,7.72,1.98
			c2.19,1.32,3.89,3.07,5.11,5.26c1.22,2.19,1.82,4.6,1.82,7.23c0,0.41-0.01,0.84-0.03,1.31c-0.02,0.47-0.05,0.98-0.09,1.55h-23.46
			c0.2,2.92,1.17,5.14,2.89,6.66c1.72,1.52,3.72,2.28,5.99,2.28c1.82,0,3.35-0.42,4.59-1.25c1.24-0.83,2.16-1.96,2.77-3.37h6.44
			c-0.81,2.84-2.42,5.21-4.83,7.11C370.78,190.74,367.79,191.69,364.23,191.69z M364.23,165.37c-2.15,0-4.05,0.64-5.71,1.91
			c-1.66,1.28-2.67,3.19-3.04,5.74h17.02c-0.12-2.35-0.95-4.21-2.49-5.59C368.46,166.06,366.54,165.37,364.23,165.37z"/>
		<path class="st0" d="M385.62,190.96v-30.15h5.77l0.55,5.71c1.05-1.98,2.52-3.56,4.41-4.71c1.88-1.15,4.16-1.73,6.84-1.73v6.75
			h-1.76c-1.78,0-3.37,0.29-4.77,0.88c-1.4,0.59-2.51,1.58-3.34,2.98c-0.83,1.4-1.25,3.33-1.25,5.8v14.47H385.62z"/>
		<path class="st0" d="M420.76,191.69c-3.81,0-6.95-0.93-9.42-2.8c-2.47-1.86-3.89-4.34-4.25-7.42h6.5
			c0.32,1.38,1.09,2.56,2.31,3.56c1.22,0.99,2.82,1.49,4.8,1.49c1.95,0,3.36-0.4,4.25-1.22c0.89-0.81,1.34-1.74,1.34-2.8
			c0-1.54-0.62-2.58-1.85-3.13c-1.24-0.55-2.95-1.04-5.14-1.49c-1.7-0.37-3.39-0.85-5.08-1.46c-1.68-0.61-3.08-1.47-4.19-2.58
			c-1.12-1.11-1.67-2.62-1.67-4.53c0-2.63,1.01-4.83,3.04-6.59c2.03-1.76,4.86-2.64,8.51-2.64c3.36,0,6.09,0.81,8.18,2.43
			c2.09,1.62,3.31,3.91,3.68,6.87h-6.2c-0.2-1.3-0.8-2.31-1.79-3.04c-0.99-0.73-2.32-1.09-3.98-1.09c-1.62,0-2.88,0.33-3.77,1
			c-0.89,0.67-1.34,1.53-1.34,2.58c0,1.05,0.62,1.88,1.85,2.49c1.24,0.61,2.87,1.16,4.89,1.64c2.03,0.45,3.9,0.96,5.62,1.55
			c1.72,0.59,3.11,1.45,4.16,2.58s1.58,2.8,1.58,4.98c0.04,2.76-1.02,5.05-3.19,6.87C427.43,190.78,424.48,191.69,420.76,191.69z"/>
	</g>
</g>
</svg>
