<?xml version="1.0" encoding="utf-8"?>
<!-- Generator: Adobe Illustrator 25.2.0, SVG Export Plug-In . SVG Version: 6.00 Build 0)  -->
<svg version="1.1" xmlns="http://www.w3.org/2000/svg" xmlns:xlink="http://www.w3.org/1999/xlink" x="0px" y="0px"
	 viewBox="0 0 602.52 211.38" style="enable-background:new 0 0 602.52 211.38;" xml:space="preserve">
<style type="text/css">
	.st0{fill:#1A1549;}
</style>
<g id="Layer_1">
	<g>
		<g>
			<path class="st0" d="M50.49,4.26C24.43,4.26,3.3,25.39,3.3,51.45v144.06h121.89c26.06,0,47.19-22.14,47.19-48.2V4.26H50.49z
				 M143.37,143.3l-111.31,0l-0.09-29l82.4,0l0.02-29H32.3V56.57l111.07-0.27V143.3z"/>
		</g>
	</g>
</g>
<g id="Layer_2">
	<g>
		<path class="st0" d="M201.33,47.55V5.12h26.97v5.21h-20.54v13.21h18.73v5.09h-18.73v13.7h20.54v5.21H201.33z"/>
		<path class="st0" d="M235.94,47.55V5.12h14.85c3.31,0,6.06,0.56,8.24,1.67c2.18,1.11,3.81,2.63,4.88,4.54
			c1.07,1.92,1.61,4.09,1.61,6.51c0,2.3-0.52,4.41-1.55,6.33c-1.03,1.92-2.64,3.45-4.82,4.58c-2.18,1.13-4.97,1.7-8.36,1.7h-8.42
			v17.09H235.94z M242.36,25.18h8.12c3.03,0,5.2-0.66,6.51-1.97c1.31-1.31,1.97-3.1,1.97-5.36c0-2.34-0.66-4.17-1.97-5.48
			c-1.31-1.31-3.48-1.97-6.51-1.97h-8.12V25.18z"/>
		<path class="st0" d="M271.87,47.55V5.12h26.97v5.21H278.3v13.21h18.73v5.09H278.3v13.7h20.54v5.21H271.87z"/>
		<path class="st0" d="M217,121.57c-3.11,0-5.84-0.55-8.18-1.64c-2.34-1.09-4.17-2.65-5.48-4.67c-1.31-2.02-1.99-4.42-2.03-7.21
			h6.79c0.04,2.26,0.83,4.18,2.36,5.76c1.53,1.58,3.7,2.36,6.48,2.36c2.46,0,4.39-0.6,5.79-1.79c1.39-1.19,2.09-2.72,2.09-4.58
			c0-1.49-0.33-2.71-1-3.64c-0.67-0.93-1.58-1.7-2.73-2.3c-1.15-0.61-2.48-1.15-3.97-1.64c-1.5-0.48-3.07-1.01-4.73-1.58
			c-3.27-1.09-5.73-2.5-7.36-4.24c-1.64-1.74-2.45-4.02-2.45-6.85c-0.04-2.38,0.52-4.46,1.67-6.24c1.15-1.78,2.77-3.16,4.85-4.15
			c2.08-0.99,4.51-1.48,7.3-1.48c2.75,0,5.16,0.51,7.24,1.51c2.08,1.01,3.71,2.41,4.88,4.21c1.17,1.8,1.78,3.89,1.82,6.27h-6.79
			c0-1.09-0.28-2.13-0.85-3.12c-0.57-0.99-1.39-1.81-2.48-2.45c-1.09-0.65-2.42-0.97-4-0.97c-2.02-0.04-3.69,0.46-5,1.51
			c-1.31,1.05-1.97,2.51-1.97,4.36c0,1.66,0.49,2.93,1.45,3.82c0.97,0.89,2.3,1.63,4,2.21c1.7,0.59,3.64,1.26,5.82,2.03
			c2.1,0.69,3.98,1.51,5.64,2.48c1.66,0.97,2.98,2.24,3.97,3.82c0.99,1.58,1.48,3.58,1.48,6c0,2.14-0.55,4.13-1.64,5.97
			c-1.09,1.84-2.73,3.33-4.91,4.48C222.88,120.99,220.19,121.57,217,121.57z"/>
		<path class="st0" d="M238.39,134.17V90.78h5.76l0.67,4.67c0.97-1.41,2.3-2.67,4-3.76c1.7-1.09,3.88-1.64,6.55-1.64
			c2.91,0,5.47,0.69,7.7,2.06c2.22,1.37,3.97,3.25,5.24,5.64c1.27,2.38,1.91,5.09,1.91,8.12s-0.64,5.73-1.91,8.09
			c-1.27,2.36-3.02,4.22-5.24,5.58c-2.22,1.35-4.81,2.03-7.76,2.03c-2.34,0-4.41-0.46-6.21-1.39c-1.8-0.93-3.22-2.24-4.27-3.94
			v17.94H238.39z M254.21,115.99c2.75,0,5.01-0.94,6.79-2.82c1.78-1.88,2.67-4.33,2.67-7.36c0-1.98-0.4-3.74-1.21-5.27
			c-0.81-1.54-1.92-2.74-3.33-3.61c-1.41-0.87-3.05-1.3-4.91-1.3c-2.75,0-5,0.95-6.76,2.85c-1.76,1.9-2.64,4.34-2.64,7.33
			c0,3.03,0.88,5.48,2.64,7.36C249.21,115.05,251.46,115.99,254.21,115.99z"/>
		<path class="st0" d="M291.23,121.57c-2.95,0-5.57-0.66-7.85-1.97c-2.28-1.31-4.07-3.14-5.36-5.48c-1.29-2.34-1.94-5.07-1.94-8.18
			c0-3.15,0.64-5.92,1.91-8.3c1.27-2.38,3.05-4.24,5.33-5.58c2.28-1.33,4.94-2,7.97-2c2.95,0,5.51,0.66,7.7,1.97
			c2.18,1.31,3.88,3.06,5.09,5.24c1.21,2.18,1.82,4.59,1.82,7.21c0,0.4-0.01,0.84-0.03,1.3c-0.02,0.46-0.05,0.98-0.09,1.55h-23.39
			c0.2,2.91,1.16,5.12,2.88,6.64c1.72,1.51,3.71,2.27,5.97,2.27c1.82,0,3.34-0.41,4.58-1.24c1.23-0.83,2.15-1.95,2.76-3.36h6.42
			c-0.81,2.83-2.41,5.19-4.82,7.09C297.77,120.62,294.79,121.57,291.23,121.57z M291.23,95.32c-2.14,0-4.04,0.64-5.7,1.91
			c-1.66,1.27-2.67,3.18-3.03,5.73h16.97c-0.12-2.34-0.95-4.2-2.48-5.58C295.46,96.01,293.54,95.32,291.23,95.32z"/>
		<path class="st0" d="M326.81,121.57c-2.95,0-5.59-0.67-7.91-2c-2.32-1.33-4.14-3.18-5.45-5.54c-1.31-2.36-1.97-5.1-1.97-8.21
			c0-3.11,0.66-5.85,1.97-8.21c1.31-2.36,3.13-4.21,5.45-5.55c2.32-1.33,4.96-2,7.91-2c3.72,0,6.84,0.97,9.36,2.91
			c2.52,1.94,4.15,4.57,4.88,7.88h-6.73c-0.4-1.66-1.29-2.95-2.67-3.88c-1.37-0.93-2.99-1.39-4.85-1.39c-1.58,0-3.03,0.39-4.36,1.18
			c-1.33,0.79-2.4,1.94-3.21,3.45c-0.81,1.51-1.21,3.38-1.21,5.61c0,2.22,0.4,4.09,1.21,5.61c0.81,1.52,1.88,2.68,3.21,3.49
			c1.33,0.81,2.79,1.21,4.36,1.21c1.86,0,3.47-0.46,4.85-1.39c1.37-0.93,2.26-2.24,2.67-3.94h6.73c-0.69,3.23-2.3,5.84-4.85,7.82
			C333.66,120.58,330.53,121.57,326.81,121.57z"/>
		<path class="st0" d="M351.65,85.08c-1.21,0-2.21-0.37-3-1.12c-0.79-0.75-1.18-1.69-1.18-2.82c0-1.13,0.39-2.07,1.18-2.82
			c0.79-0.75,1.79-1.12,3-1.12c1.21,0,2.21,0.37,3,1.12c0.79,0.75,1.18,1.69,1.18,2.82c0,1.13-0.39,2.07-1.18,2.82
			C353.87,84.71,352.87,85.08,351.65,85.08z M348.44,120.84V90.78h6.42v30.06H348.44z"/>
		<path class="st0" d="M373.53,121.57c-2.54,0-4.65-0.42-6.3-1.27c-1.66-0.85-2.89-1.97-3.7-3.36c-0.81-1.39-1.21-2.92-1.21-4.58
			c0-2.91,1.13-5.21,3.39-6.91c2.26-1.7,5.49-2.55,9.7-2.55h7.88v-0.55c0-2.34-0.64-4.1-1.91-5.27c-1.27-1.17-2.92-1.76-4.94-1.76
			c-1.78,0-3.32,0.43-4.64,1.3c-1.31,0.87-2.11,2.15-2.39,3.85h-6.42c0.2-2.18,0.94-4.05,2.21-5.61c1.27-1.56,2.89-2.75,4.85-3.58
			c1.96-0.83,4.11-1.24,6.45-1.24c4.2,0,7.45,1.1,9.76,3.3c2.3,2.2,3.45,5.2,3.45,9v18.48h-5.57l-0.55-5.15
			c-0.85,1.66-2.08,3.05-3.7,4.18C378.28,121,376.16,121.57,373.53,121.57z M374.8,116.35c1.74,0,3.2-0.41,4.39-1.24
			c1.19-0.83,2.12-1.93,2.79-3.3c0.67-1.37,1.08-2.89,1.24-4.55h-7.15c-2.55,0-4.35,0.45-5.42,1.33c-1.07,0.89-1.61,2-1.61,3.33
			c0,1.37,0.52,2.45,1.55,3.24S373.03,116.35,374.8,116.35z"/>
		<path class="st0" d="M397.23,120.84V77.2h6.42v43.63H397.23z"/>
		<path class="st0" d="M222.39,195.48c-4.2,0-7.88-0.93-11.03-2.79c-3.15-1.86-5.62-4.43-7.39-7.73c-1.78-3.29-2.67-7.1-2.67-11.42
			c0-4.32,0.89-8.13,2.67-11.42c1.78-3.29,4.24-5.87,7.39-7.73c3.15-1.86,6.83-2.79,11.03-2.79c4.2,0,7.88,0.93,11.03,2.79
			c3.15,1.86,5.61,4.43,7.36,7.73c1.76,3.29,2.64,7.1,2.64,11.42c0,4.32-0.88,8.13-2.64,11.42c-1.76,3.29-4.21,5.87-7.36,7.73
			C230.27,194.55,226.59,195.48,222.39,195.48z M222.39,189.72c2.91,0,5.44-0.65,7.61-1.94c2.16-1.29,3.85-3.15,5.06-5.58
			s1.82-5.31,1.82-8.67c0-3.35-0.61-6.24-1.82-8.67c-1.21-2.42-2.9-4.28-5.06-5.58c-2.16-1.29-4.7-1.94-7.61-1.94
			s-5.45,0.65-7.64,1.94c-2.18,1.29-3.87,3.15-5.06,5.58c-1.19,2.42-1.79,5.31-1.79,8.67c0,3.35,0.6,6.24,1.79,8.67
			c1.19,2.42,2.88,4.28,5.06,5.58C216.94,189.08,219.48,189.72,222.39,189.72z"/>
		<path class="st0" d="M250.33,208.08v-43.39h5.76l0.67,4.67c0.97-1.41,2.3-2.67,4-3.76c1.7-1.09,3.88-1.64,6.55-1.64
			c2.91,0,5.47,0.69,7.7,2.06c2.22,1.37,3.97,3.25,5.24,5.64c1.27,2.38,1.91,5.09,1.91,8.12c0,3.03-0.64,5.73-1.91,8.09
			c-1.27,2.36-3.02,4.22-5.24,5.58c-2.22,1.35-4.81,2.03-7.76,2.03c-2.34,0-4.41-0.46-6.21-1.39c-1.8-0.93-3.22-2.24-4.27-3.94
			v17.94H250.33z M266.15,189.9c2.75,0,5.01-0.94,6.79-2.82c1.78-1.88,2.67-4.33,2.67-7.36c0-1.98-0.4-3.74-1.21-5.27
			c-0.81-1.53-1.92-2.74-3.33-3.61c-1.41-0.87-3.05-1.3-4.91-1.3c-2.75,0-5,0.95-6.76,2.85c-1.76,1.9-2.64,4.34-2.64,7.33
			c0,3.03,0.88,5.48,2.64,7.36C261.15,188.96,263.4,189.9,266.15,189.9z"/>
		<path class="st0" d="M289.11,208.08v-43.39h5.76l0.67,4.67c0.97-1.41,2.3-2.67,4-3.76c1.7-1.09,3.88-1.64,6.55-1.64
			c2.91,0,5.47,0.69,7.7,2.06c2.22,1.37,3.97,3.25,5.24,5.64c1.27,2.38,1.91,5.09,1.91,8.12c0,3.03-0.64,5.73-1.91,8.09
			c-1.27,2.36-3.02,4.22-5.24,5.58c-2.22,1.35-4.81,2.03-7.76,2.03c-2.34,0-4.41-0.46-6.21-1.39c-1.8-0.93-3.22-2.24-4.27-3.94
			v17.94H289.11z M304.93,189.9c2.75,0,5.01-0.94,6.79-2.82c1.78-1.88,2.67-4.33,2.67-7.36c0-1.98-0.4-3.74-1.21-5.27
			c-0.81-1.53-1.92-2.74-3.33-3.61c-1.41-0.87-3.05-1.3-4.91-1.3c-2.75,0-5,0.95-6.76,2.85c-1.76,1.9-2.64,4.34-2.64,7.33
			c0,3.03,0.88,5.48,2.64,7.36C299.93,188.96,302.18,189.9,304.93,189.9z"/>
		<path class="st0" d="M341.96,195.48c-2.87,0-5.44-0.66-7.73-1.97c-2.28-1.31-4.09-3.15-5.42-5.51c-1.33-2.36-2-5.12-2-8.27
			c0-3.15,0.68-5.91,2.03-8.27c1.35-2.36,3.18-4.2,5.48-5.51c2.3-1.31,4.87-1.97,7.7-1.97c2.87,0,5.44,0.66,7.73,1.97
			c2.28,1.31,4.1,3.15,5.45,5.51c1.35,2.36,2.03,5.12,2.03,8.27c0,3.15-0.68,5.91-2.03,8.27c-1.35,2.36-3.18,4.2-5.48,5.51
			C347.41,194.82,344.83,195.48,341.96,195.48z M341.96,189.96c1.54,0,2.96-0.38,4.27-1.15c1.31-0.77,2.37-1.91,3.18-3.42
			c0.81-1.51,1.21-3.4,1.21-5.67c0-2.26-0.39-4.15-1.18-5.67c-0.79-1.51-1.84-2.66-3.15-3.42c-1.31-0.77-2.74-1.15-4.27-1.15
			c-1.54,0-2.96,0.38-4.27,1.15c-1.31,0.77-2.37,1.91-3.18,3.42c-0.81,1.52-1.21,3.4-1.21,5.67c0,2.26,0.4,4.15,1.21,5.67
			c0.81,1.52,1.86,2.66,3.15,3.42C339.01,189.58,340.42,189.96,341.96,189.96z"/>
		<path class="st0" d="M364.2,194.75v-30.06h5.76l0.55,5.7c1.05-1.98,2.52-3.55,4.39-4.7c1.88-1.15,4.15-1.73,6.82-1.73v6.73h-1.76
			c-1.78,0-3.36,0.29-4.76,0.88c-1.39,0.59-2.51,1.58-3.33,2.97c-0.83,1.39-1.24,3.32-1.24,5.79v14.42H364.2z"/>
		<path class="st0" d="M399.83,194.75c-2.95,0-5.29-0.72-7.03-2.15c-1.74-1.43-2.61-3.99-2.61-7.67v-14.85h-5.15v-5.39h5.15
			l0.79-7.64h5.64v7.64h8.48v5.39h-8.48v14.85c0,1.66,0.35,2.8,1.06,3.42c0.71,0.63,1.93,0.94,3.67,0.94h3.45v5.45H399.83z"/>
		<path class="st0" d="M422.8,195.48c-3.64,0-6.49-1.13-8.58-3.39c-2.08-2.26-3.12-5.64-3.12-10.12v-17.27h6.42v16.61
			c0,5.82,2.38,8.73,7.15,8.73c2.38,0,4.34-0.85,5.88-2.54c1.53-1.7,2.3-4.12,2.3-7.27v-15.51h6.42v30.06h-5.7l-0.48-5.27
			c-0.93,1.86-2.29,3.32-4.09,4.39S425.14,195.48,422.8,195.48z"/>
		<path class="st0" d="M447.47,194.75v-30.06h5.7l0.49,5.27c0.93-1.86,2.29-3.32,4.09-4.39c1.8-1.07,3.87-1.61,6.21-1.61
			c3.64,0,6.49,1.13,8.57,3.39s3.12,5.64,3.12,10.12v17.27h-6.36v-16.61c0-5.82-2.38-8.73-7.15-8.73c-2.38,0-4.35,0.85-5.91,2.54
			c-1.56,1.7-2.33,4.12-2.33,7.27v15.51H447.47z"/>
		<path class="st0" d="M486.86,159c-1.21,0-2.21-0.37-3-1.12c-0.79-0.75-1.18-1.69-1.18-2.82c0-1.13,0.39-2.07,1.18-2.82
			c0.79-0.75,1.79-1.12,3-1.12s2.21,0.37,3,1.12c0.79,0.75,1.18,1.69,1.18,2.82c0,1.13-0.39,2.07-1.18,2.82
			C489.07,158.62,488.07,159,486.86,159z M483.64,194.75v-30.06h6.42v30.06H483.64z"/>
		<path class="st0" d="M511.16,194.75c-2.95,0-5.29-0.72-7.03-2.15c-1.74-1.43-2.61-3.99-2.61-7.67v-14.85h-5.15v-5.39h5.15
			l0.79-7.64h5.64v7.64h8.48v5.39h-8.48v14.85c0,1.66,0.35,2.8,1.06,3.42c0.71,0.63,1.93,0.94,3.67,0.94h3.45v5.45H511.16z"/>
		<path class="st0" d="M526.67,159c-1.21,0-2.21-0.37-3-1.12c-0.79-0.75-1.18-1.69-1.18-2.82c0-1.13,0.39-2.07,1.18-2.82
			c0.79-0.75,1.79-1.12,3-1.12s2.21,0.37,3,1.12c0.79,0.75,1.18,1.69,1.18,2.82c0,1.13-0.39,2.07-1.18,2.82
			C528.88,158.62,527.88,159,526.67,159z M523.46,194.75v-30.06h6.42v30.06H523.46z"/>
		<path class="st0" d="M552.43,195.48c-2.95,0-5.57-0.66-7.85-1.97c-2.28-1.31-4.07-3.14-5.36-5.48c-1.29-2.34-1.94-5.07-1.94-8.18
			c0-3.15,0.64-5.92,1.91-8.3c1.27-2.38,3.05-4.24,5.33-5.58c2.28-1.33,4.94-2,7.97-2c2.95,0,5.51,0.66,7.7,1.97
			c2.18,1.31,3.88,3.06,5.09,5.24c1.21,2.18,1.82,4.59,1.82,7.21c0,0.4-0.01,0.84-0.03,1.3c-0.02,0.46-0.05,0.98-0.09,1.55h-23.39
			c0.2,2.91,1.16,5.12,2.88,6.64c1.72,1.52,3.71,2.27,5.97,2.27c1.82,0,3.34-0.41,4.58-1.24c1.23-0.83,2.15-1.95,2.76-3.36h6.42
			c-0.81,2.83-2.41,5.19-4.82,7.09C558.96,194.53,555.98,195.48,552.43,195.48z M552.43,169.24c-2.14,0-4.04,0.64-5.7,1.91
			c-1.66,1.27-2.67,3.18-3.03,5.73h16.97c-0.12-2.34-0.95-4.2-2.48-5.58C556.65,169.93,554.73,169.24,552.43,169.24z"/>
		<path class="st0" d="M585.76,195.48c-3.8,0-6.93-0.93-9.39-2.79c-2.46-1.86-3.88-4.32-4.24-7.39h6.48
			c0.32,1.37,1.09,2.56,2.3,3.55c1.21,0.99,2.81,1.49,4.79,1.49c1.94,0,3.35-0.4,4.24-1.21c0.89-0.81,1.33-1.74,1.33-2.79
			c0-1.53-0.62-2.58-1.85-3.12c-1.23-0.55-2.94-1.04-5.12-1.48c-1.7-0.36-3.38-0.85-5.06-1.45c-1.68-0.61-3.07-1.46-4.18-2.58
			c-1.11-1.11-1.67-2.62-1.67-4.52c0-2.63,1.01-4.82,3.03-6.57c2.02-1.76,4.85-2.64,8.48-2.64c3.35,0,6.07,0.81,8.15,2.42
			c2.08,1.62,3.3,3.9,3.67,6.85h-6.18c-0.2-1.29-0.8-2.3-1.79-3.03c-0.99-0.73-2.31-1.09-3.97-1.09c-1.62,0-2.87,0.33-3.76,1
			c-0.89,0.67-1.33,1.53-1.33,2.58s0.62,1.88,1.85,2.48c1.23,0.61,2.86,1.15,4.88,1.64c2.02,0.44,3.89,0.96,5.61,1.55
			c1.72,0.59,3.1,1.44,4.15,2.58c1.05,1.13,1.58,2.79,1.58,4.97c0.04,2.75-1.02,5.03-3.18,6.85
			C592.41,194.57,589.47,195.48,585.76,195.48z"/>
	</g>
</g>
</svg>
